<svg xmlns="http://www.w3.org/2000/svg" viewBox="0 0 1338.29 197.25"><defs><style>.cls-1{fill:#023047;}.cls-2{fill:#ffb703;}.cls-3{fill:#219ebc;}</style></defs><g id="Layer_1" data-name="Layer 1"><path class="cls-1" d="M276.86,146.56a3.09,3.09,0,0,1-.93-2.26V57.86a3.4,3.4,0,0,1,.86-2.39,3,3,0,0,1,2.33-.93h34.39q16.33,0,25.56,7.57t9.23,21.51q0,9.69-4.65,16.26a25.87,25.87,0,0,1-13,9.5l19.25,33.86a3.39,3.39,0,0,1,.4,1.46,2.59,2.59,0,0,1-.87,2,2.76,2.76,0,0,1-1.92.8H335.28a5.08,5.08,0,0,1-3.32-1,9.75,9.75,0,0,1-2.12-2.59l-17-31.47H294.65V144.3a3.09,3.09,0,0,1-.93,2.26,3.22,3.22,0,0,1-2.39.93H279.12A3.07,3.07,0,0,1,276.86,146.56ZM313.11,97.3q8,0,11.95-3.52t4-10.29q0-6.78-4-10.43t-11.95-3.65H294.65V97.3Z"/><path class="cls-1" d="M369.34,140.32q-8.7-8.5-9.23-24.17l-.13-3.32q0-16.59,8.7-26.16t24.1-9.56q15.8,0,24.36,9.56t8.57,25.5V115a3.08,3.08,0,0,1-.94,2.26,3.21,3.21,0,0,1-2.39.93H378.3v1.06a20.66,20.66,0,0,0,4.05,12.29,12.5,12.5,0,0,0,10.43,4.84,14.94,14.94,0,0,0,12.34-6.11,7.31,7.31,0,0,1,1.86-1.79,5.51,5.51,0,0,1,2.26-.33h11.68a3.28,3.28,0,0,1,2.06.66,2.22,2.22,0,0,1,.87,1.86c0,2.13-1.27,4.63-3.79,7.5a31.36,31.36,0,0,1-10.82,7.51,39.32,39.32,0,0,1-16.33,3.18Q378,148.81,369.34,140.32Zm38-33.46v-.27q0-7.83-3.92-12.55a13.15,13.15,0,0,0-10.68-4.71q-6.78,0-10.63,4.71t-3.85,12.55v.27Z"/><path class="cls-1" d="M449.2,145.76q-6.76-3.06-10-7.1t-3.25-7a2.73,2.73,0,0,1,.86-2.12,2.93,2.93,0,0,1,2.06-.8h10.89a2.3,2.3,0,0,1,1.85,1.07c.45.35,1.44,1.19,3,2.52a17.62,17.62,0,0,0,5.31,3.12,18.55,18.55,0,0,0,6.58,1.13,16.21,16.21,0,0,0,8.63-2.06,6.56,6.56,0,0,0,3.32-5.91,6.09,6.09,0,0,0-1.53-4.31,13.77,13.77,0,0,0-5.45-3.06,104.51,104.51,0,0,0-11.75-3.12q-11.28-2.39-16.66-7.3t-5.38-13a17.56,17.56,0,0,1,3.19-10,22.94,22.94,0,0,1,9.49-7.7,35,35,0,0,1,15.07-3A38.4,38.4,0,0,1,480.94,80a26.91,26.91,0,0,1,9.89,6.84c2.26,2.65,3.39,5,3.39,7a3,3,0,0,1-2.93,2.92h-10a2.64,2.64,0,0,1-2.26-1.06c-.62-.44-1.62-1.26-3-2.45a16.87,16.87,0,0,0-4.58-2.86,15.69,15.69,0,0,0-6.11-1.06c-3.27,0-5.8.71-7.57,2.12A6.81,6.81,0,0,0,455.18,97a6.21,6.21,0,0,0,1.26,4q1.26,1.59,5.11,3a81.32,81.32,0,0,0,11.55,2.86Q497,111.5,497,127.7q0,9.44-8.16,15.27t-22.77,5.84Q456,148.81,449.2,145.76Z"/><path class="cls-1" d="M517.05,140.85q-8.49-8-9.16-22l-.13-5.85.13-5.84q.66-13.94,9.3-22t24-8q15.27,0,23.9,8t9.29,22c.09,1.06.14,3,.14,5.84s0,4.78-.14,5.85q-.66,14.07-9.16,22t-24,8Q525.54,148.81,517.05,140.85ZM552,131q3.78-4.38,4.05-12.88c.09-.88.13-2.61.13-5.18s0-4.29-.13-5.18q-.27-8.49-4.12-12.94t-10.75-4.45q-7,0-10.89,4.45t-4.12,12.94l-.13,5.18.13,5.18q.27,8.51,4.12,12.88t10.89,4.38Q548.25,135.4,552,131Z"/><path class="cls-1" d="M595.66,140.85q-7-8-7-21.91V81.63a3,3,0,0,1,.93-2.33,3.22,3.22,0,0,1,2.26-.86h12a3.18,3.18,0,0,1,3.18,3.19v36.51q0,16.33,14.21,16.33,6.9,0,11-4.38t4-12V81.63a3,3,0,0,1,.93-2.33,3.22,3.22,0,0,1,2.26-.86h11.82a3.16,3.16,0,0,1,2.32.86,3.13,3.13,0,0,1,.86,2.33V144.3a3.19,3.19,0,0,1-.86,2.26,3,3,0,0,1-2.32.93h-11A3.18,3.18,0,0,1,637,144.3v-5.45q-7.31,10-22,10Q602.68,148.81,595.66,140.85Z"/><path class="cls-1" d="M672.8,146.56a3.09,3.09,0,0,1-.93-2.26V81.76a3.24,3.24,0,0,1,.93-2.39,3.07,3.07,0,0,1,2.26-.93h10.88a3.19,3.19,0,0,1,3.32,3.32V87.2q6.65-8.76,19.12-8.76H714a3,3,0,0,1,3.19,3.19v9.69a3.18,3.18,0,0,1-.87,2.26,3,3,0,0,1-2.32.93H703.47q-6.24,0-9.83,3.58t-3.58,9.83V144.3a3.18,3.18,0,0,1-3.19,3.19H675.06A3.07,3.07,0,0,1,672.8,146.56Z"/><path class="cls-1" d="M733.15,140.71q-8.7-8.09-9.23-22.44l-.13-5.31.13-5.31q.52-14.34,9.23-22.44t23.3-8.1q10.49,0,17.73,3.72a27.35,27.35,0,0,1,10.75,9.1,20.88,20.88,0,0,1,3.78,10.29,2.55,2.55,0,0,1-.86,2.25,3.29,3.29,0,0,1-2.32.93H773.71a3.16,3.16,0,0,1-2.12-.59,6.1,6.1,0,0,1-1.33-2.2,15.58,15.58,0,0,0-5.24-7.3,14.31,14.31,0,0,0-8.3-2.26q-6.78,0-10.56,4.25c-2.52,2.84-3.87,7.17-4,13l-.13,4.91.13,4.38q.79,17.27,14.61,17.26a14.47,14.47,0,0,0,8.36-2.19q3.18-2.19,5.18-7.37a5.19,5.19,0,0,1,1.26-2.12,3.14,3.14,0,0,1,2.19-.67h11.82a3.29,3.29,0,0,1,2.32.93,2.58,2.58,0,0,1,.86,2.26,21,21,0,0,1-3.71,10A27.87,27.87,0,0,1,774.38,145q-7.17,3.85-17.93,3.85Q741.84,148.81,733.15,140.71Z"/><path class="cls-1" d="M808.83,140.32q-8.7-8.5-9.23-24.17l-.13-3.32q0-16.59,8.7-26.16t24.09-9.56q15.81,0,24.37,9.56t8.56,25.5V115a3.07,3.07,0,0,1-.93,2.26,3.22,3.22,0,0,1-2.39.93H817.79v1.06a20.66,20.66,0,0,0,4.05,12.29,12.49,12.49,0,0,0,10.42,4.84,15,15,0,0,0,12.35-6.11,7.31,7.31,0,0,1,1.86-1.79,5.51,5.51,0,0,1,2.26-.33h11.68a3.3,3.3,0,0,1,2.06.66,2.22,2.22,0,0,1,.87,1.86c0,2.13-1.27,4.63-3.79,7.5a31.36,31.36,0,0,1-10.82,7.51,39.32,39.32,0,0,1-16.33,3.18Q817.52,148.81,808.83,140.32Zm38-33.46v-.27q0-7.83-3.92-12.55a13.16,13.16,0,0,0-10.69-4.71A13,13,0,0,0,821.64,94q-3.85,4.71-3.85,12.55v.27Z"/><path class="cls-1" d="M918.64,139.45q-10-9.36-10.69-26.62-.13-3.58-.13-11.68t.13-12q.66-17,10.75-26.49T947,53.21a48.63,48.63,0,0,1,20.58,4,32.69,32.69,0,0,1,13.61,11.09,28.77,28.77,0,0,1,5.12,15.8v.27a2.27,2.27,0,0,1-.87,1.79,2.86,2.86,0,0,1-1.92.73H970.62a3.42,3.42,0,0,1-2.39-.73,5.59,5.59,0,0,1-1.33-2.59q-2-8.24-6.9-11.62t-13-3.39q-19,0-19.78,21.25-.13,3.58-.13,11t.13,11.29Q928,133.41,947,133.41q8,0,12.95-3.39t7-11.61a5.59,5.59,0,0,1,1.33-2.59,3.42,3.42,0,0,1,2.39-.73H983.5a3,3,0,0,1,2.06.79,2.29,2.29,0,0,1,.73,2,28.77,28.77,0,0,1-5.12,15.8,32.68,32.68,0,0,1-13.61,11.08A48.63,48.63,0,0,1,947,148.81Q928.67,148.81,918.64,139.45Z"/><path class="cls-1" d="M1006.8,140.32q-8.7-8.5-9.23-24.17l-.13-3.32q0-16.59,8.7-26.16t24.1-9.56q15.79,0,24.36,9.56t8.57,25.5V115a3.11,3.11,0,0,1-.93,2.26,3.24,3.24,0,0,1-2.39.93h-44.09v1.06a20.66,20.66,0,0,0,4,12.29,12.51,12.51,0,0,0,10.43,4.84,14.94,14.94,0,0,0,12.34-6.11,7.31,7.31,0,0,1,1.86-1.79,5.51,5.51,0,0,1,2.26-.33h11.69a3.27,3.27,0,0,1,2,.66,2.22,2.22,0,0,1,.87,1.86c0,2.13-1.27,4.63-3.79,7.5a31.36,31.36,0,0,1-10.82,7.51,39.32,39.32,0,0,1-16.33,3.18Q1015.49,148.81,1006.8,140.32Zm38-33.46v-.27q0-7.83-3.92-12.55a13.15,13.15,0,0,0-10.68-4.71q-6.78,0-10.63,4.71t-3.85,12.55v.27Z"/><path class="cls-1" d="M1078.17,146.56a3.09,3.09,0,0,1-.93-2.26V81.63a3,3,0,0,1,.93-2.33,3.21,3.21,0,0,1,2.25-.86h11a3,3,0,0,1,3.18,3.19v5.44q8.1-10,22.18-10,12.21,0,19.38,8t7.17,21.91V144.3a3.23,3.23,0,0,1-.86,2.26,3,3,0,0,1-2.33.93h-12a3.18,3.18,0,0,1-3.18-3.19V107.78q0-7.69-3.79-12t-10.82-4.32a14.26,14.26,0,0,0-10.89,4.38q-4.11,4.4-4.11,12V144.3a3.23,3.23,0,0,1-.86,2.26,3,3,0,0,1-2.33.93h-11.82A3.06,3.06,0,0,1,1078.17,146.56Z"/><path class="cls-1" d="M1172.57,141.18q-6.1-6.31-6.1-18.52v-30H1156a3.18,3.18,0,0,1-3.19-3.19V81.63a3.18,3.18,0,0,1,3.19-3.19h10.49v-22a3,3,0,0,1,.92-2.32,3.2,3.2,0,0,1,2.26-.87h11a3,3,0,0,1,3.19,3.19v22h16.6a3.18,3.18,0,0,1,3.18,3.19v7.83a3.18,3.18,0,0,1-3.18,3.19h-16.6v28.54q0,5.72,2,8.64c1.33,1.94,3.5,2.92,6.51,2.92h9.29a3,3,0,0,1,3.19,3.18v8.37a3.23,3.23,0,0,1-.86,2.26,3,3,0,0,1-2.33.93h-10.89Q1178.69,147.49,1172.57,141.18Z"/><path class="cls-1" d="M1217.58,146.56a3.09,3.09,0,0,1-.93-2.26V81.76a3.24,3.24,0,0,1,.93-2.39,3.09,3.09,0,0,1,2.26-.93h10.89a3.19,3.19,0,0,1,3.32,3.32V87.2q6.63-8.76,19.12-8.76h5.58a3,3,0,0,1,3.18,3.19v9.69a3.22,3.22,0,0,1-.86,2.26,3,3,0,0,1-2.32.93h-10.49q-6.26,0-9.83,3.58t-3.58,9.83V144.3a3.13,3.13,0,0,1-.93,2.26,3.09,3.09,0,0,1-2.26.93h-11.82A3.09,3.09,0,0,1,1217.58,146.56Z"/><path class="cls-1" d="M1277.67,140.32q-8.7-8.5-9.23-24.17l-.13-3.32q0-16.59,8.69-26.16t24.1-9.56q15.81,0,24.37,9.56t8.56,25.5V115a3.07,3.07,0,0,1-.93,2.26,3.24,3.24,0,0,1-2.39.93h-44.08v1.06a20.66,20.66,0,0,0,4,12.29,12.49,12.49,0,0,0,10.42,4.84,15,15,0,0,0,12.35-6.11,7.31,7.31,0,0,1,1.86-1.79,5.48,5.48,0,0,1,2.26-.33h11.68a3.3,3.3,0,0,1,2.06.66,2.24,2.24,0,0,1,.86,1.86q0,3.19-3.78,7.5a31.36,31.36,0,0,1-10.82,7.51,39.37,39.37,0,0,1-16.34,3.18Q1286.36,148.81,1277.67,140.32Zm38-33.46v-.27q0-7.83-3.92-12.55a13.16,13.16,0,0,0-10.69-4.71A13,13,0,0,0,1290.48,94q-3.86,4.71-3.85,12.55v.27Z"/><path class="cls-2" d="M54.46,54.89a4.91,4.91,0,0,1,3.61-1.4h52.16a105.36,105.36,0,0,1,12.61.74q-1.35-14.59-7.7-25A47.14,47.14,0,0,0,93.87,10.76Q80,4.45,60.37,4.44H8.21a4.8,4.8,0,0,0-5,5v130.4a5,5,0,0,0,1.4,3.51,4.73,4.73,0,0,0,3.61,1.5H53.06V58.5A4.91,4.91,0,0,1,54.46,54.89Z"/><path class="cls-3" d="M165,78.26a47.14,47.14,0,0,0-21.27-18.45,70.31,70.31,0,0,0-20.89-5.58c.15,1.62.26,3.27.32,5q.21,8.83.2,15.45t-.2,15.25q-.8,18.64-7.92,30.89A43.28,43.28,0,0,1,94.58,139q-13.55,5.91-33.2,5.91H53.06v44a5,5,0,0,0,1.4,3.51,4.73,4.73,0,0,0,3.61,1.5h53.16q19.67,0,33.2-5.91a43.26,43.26,0,0,0,20.67-18.16Q172.21,157.6,173,139q.19-8.62.2-15.25t-.2-15.45Q172.42,90.4,165,78.26Z"/><path class="cls-1" d="M94.58,139a43.28,43.28,0,0,0,20.66-18.16q7.11-12.24,7.92-30.89.21-8.62.2-15.25t-.2-15.45c-.06-1.7-.17-3.35-.32-5a105.36,105.36,0,0,0-12.61-.74H58.07a4.8,4.8,0,0,0-5,5v86.36h8.32Q81,144.86,94.58,139Z"/></g></svg>