<svg xmlns="http://www.w3.org/2000/svg" viewBox="0 0 110.04 122.63"><defs><style>.cls-1{fill:#ffb703;}.cls-2{fill:#219ebc;}.cls-3{fill:#023047;}</style></defs><g id="Layer_1" data-name="Layer 1"><path class="cls-1" d="M33.18,32.65a3.16,3.16,0,0,1,2.33-.9H69.27a66.21,66.21,0,0,1,8.16.48,37.28,37.28,0,0,0-5-16.2A30.58,30.58,0,0,0,58.68,4.09Q49.73,0,37,0H3.24A3.12,3.12,0,0,0,0,3.25V87.64a3.21,3.21,0,0,0,.91,2.27,3,3,0,0,0,2.33,1h29V35A3.16,3.16,0,0,1,33.18,32.65Z"/><path class="cls-2" d="M104.71,47.78A30.44,30.44,0,0,0,91,35.84a45.43,45.43,0,0,0-13.52-3.61c.1,1.05.17,2.11.21,3.21.09,3.81.13,7.15.13,10s0,6.15-.13,9.87q-.52,12.07-5.13,20A28,28,0,0,1,59.14,87.05q-8.76,3.84-21.49,3.83H32.27v28.5a3.2,3.2,0,0,0,.91,2.27,3,3,0,0,0,2.33,1H69.92q12.72,0,21.49-3.83a28,28,0,0,0,13.37-11.75q4.6-7.92,5.13-20c.08-3.72.13-7,.13-9.86s-.05-6.19-.13-10Q109.52,55.64,104.71,47.78Z"/><path class="cls-3" d="M59.14,87.05A28,28,0,0,0,72.51,75.3q4.6-7.92,5.13-20,.14-5.58.13-9.87c0-2.85,0-6.19-.13-10,0-1.1-.11-2.16-.21-3.21a66.21,66.21,0,0,0-8.16-.48H35.51A3.1,3.1,0,0,0,32.27,35V90.88h5.38Q50.37,90.88,59.14,87.05Z"/></g></svg>