<svg xmlns="http://www.w3.org/2000/svg" viewBox="0 0 476.2 122.63"><defs><style>.cls-1{fill:#219ebc;}.cls-2{fill:#023047;}.cls-3{fill:#ffb703;}</style></defs><g id="Layer_1" data-name="Layer 1"><path class="cls-1" d="M134.88,116.1a.79.79,0,0,1-.79-.79V93.88a.77.77,0,0,1,.23-.59.73.73,0,0,1,.56-.23h8a12.83,12.83,0,0,1,5.48,1,7,7,0,0,1,3.26,3,10.34,10.34,0,0,1,1.14,4.9c0,1,.06,1.82.06,2.57s0,1.59-.06,2.54a11.39,11.39,0,0,1-1.12,5,6.59,6.59,0,0,1-3.18,3,13,13,0,0,1-5.41,1Zm3.78-3.78h4.25a7.3,7.3,0,0,0,3-.53,3.37,3.37,0,0,0,1.69-1.7,7.62,7.62,0,0,0,.58-3.07c0-.66,0-1.24,0-1.73s0-1,0-1.48,0-1.06,0-1.7a5.67,5.67,0,0,0-1.35-4,5.58,5.58,0,0,0-4.08-1.29h-4.09Z"/><path class="cls-1" d="M161.81,116.43a7,7,0,0,1-3.1-.67,5.77,5.77,0,0,1-2.19-1.81,4.52,4.52,0,0,1,1.07-6.23,11,11,0,0,1,4.91-1.82l4.51-.66v-.69a2.59,2.59,0,0,0-3.06-2.9,3.49,3.49,0,0,0-1.93.48,2.94,2.94,0,0,0-1.1,1.27.85.85,0,0,1-.76.42h-2.6a.7.7,0,0,1-.54-.19.77.77,0,0,1-.18-.53,3.24,3.24,0,0,1,.44-1.28,5.06,5.06,0,0,1,1.25-1.47,7.28,7.28,0,0,1,2.19-1.2,9.51,9.51,0,0,1,3.26-.5,10.58,10.58,0,0,1,3.51.51,6.19,6.19,0,0,1,2.28,1.37,5.13,5.13,0,0,1,1.25,2,7.3,7.3,0,0,1,.4,2.44v10.33a.77.77,0,0,1-.23.56.73.73,0,0,1-.56.23H168a.71.71,0,0,1-.57-.23.76.76,0,0,1-.22-.56V114a5.68,5.68,0,0,1-1.15,1.15,6,6,0,0,1-1.76.91A7.79,7.79,0,0,1,161.81,116.43Zm1.12-3.13a4.44,4.44,0,0,0,2.09-.49,3.53,3.53,0,0,0,1.48-1.53,5.63,5.63,0,0,0,.54-2.62V108l-3.29.53a7.11,7.11,0,0,0-2.9,1,1.92,1.92,0,0,0-.95,1.62,1.84,1.84,0,0,0,.44,1.23,2.76,2.76,0,0,0,1.14.76A4.37,4.37,0,0,0,162.93,113.3Z"/><path class="cls-1" d="M183.21,116.1a7.26,7.26,0,0,1-3.33-.69,4.41,4.41,0,0,1-2-2.06,7.78,7.78,0,0,1-.66-3.4v-7.48h-2.6a.75.75,0,0,1-.56-.23.81.81,0,0,1-.23-.59V99.77a.79.79,0,0,1,.79-.79h2.6V93.52a.8.8,0,0,1,.22-.56.75.75,0,0,1,.57-.23h2.67a.79.79,0,0,1,.79.79V99h4.12a.79.79,0,0,1,.79.79v1.88a.81.81,0,0,1-.23.59.75.75,0,0,1-.56.23h-4.12v7.15a3.89,3.89,0,0,0,.48,2.1,1.8,1.8,0,0,0,1.66.76h2.27a.77.77,0,0,1,.56.23.75.75,0,0,1,.23.56v2a.79.79,0,0,1-.79.79Z"/><path class="cls-1" d="M194.56,116.43a6.94,6.94,0,0,1-3.09-.67,5.77,5.77,0,0,1-2.19-1.81,4.49,4.49,0,0,1,1.07-6.23,11,11,0,0,1,4.9-1.82l4.51-.66v-.69a2.59,2.59,0,0,0-3.06-2.9,3.46,3.46,0,0,0-1.92.48,3,3,0,0,0-1.11,1.27.82.82,0,0,1-.75.42h-2.6a.71.71,0,0,1-.55-.19.77.77,0,0,1-.18-.53,3.13,3.13,0,0,1,.45-1.28,5.06,5.06,0,0,1,1.25-1.47,7.28,7.28,0,0,1,2.19-1.2,9.47,9.47,0,0,1,3.26-.5,10.47,10.47,0,0,1,3.5.51,6.15,6.15,0,0,1,2.29,1.37,5.13,5.13,0,0,1,1.25,2,7.57,7.57,0,0,1,.4,2.44v10.33a.77.77,0,0,1-.23.56.75.75,0,0,1-.56.23h-2.67a.75.75,0,0,1-.58-.23.79.79,0,0,1-.21-.56V114a6,6,0,0,1-1.15,1.15,6.08,6.08,0,0,1-1.76.91A7.86,7.86,0,0,1,194.56,116.43Zm1.12-3.13a4.38,4.38,0,0,0,2.09-.49,3.48,3.48,0,0,0,1.48-1.53,5.5,5.5,0,0,0,.55-2.62V108l-3.29.53a7.11,7.11,0,0,0-2.9,1,1.93,1.93,0,0,0-1,1.62,1.79,1.79,0,0,0,.45,1.23,2.66,2.66,0,0,0,1.13.76A4.41,4.41,0,0,0,195.68,113.3Z"/><path class="cls-1" d="M218,116.1a.73.73,0,0,1-.56-.23.77.77,0,0,1-.23-.56V102.47h-2.67a.75.75,0,0,1-.56-.23.81.81,0,0,1-.23-.59V99.77a.79.79,0,0,1,.79-.79h2.67V97.63a6.7,6.7,0,0,1,.72-3.27,4.64,4.64,0,0,1,2.14-2,8.53,8.53,0,0,1,3.59-.66h2.24a.78.78,0,0,1,.58.23.81.81,0,0,1,.21.56v1.88a.84.84,0,0,1-.21.59.78.78,0,0,1-.58.23h-2.11a2.14,2.14,0,0,0-1.81.66,3.2,3.2,0,0,0-.49,1.91V99h4.08a.77.77,0,0,1,.58.23.81.81,0,0,1,.21.56v1.88a.84.84,0,0,1-.21.59.73.73,0,0,1-.58.23h-4.08v12.84a.77.77,0,0,1-.23.56.73.73,0,0,1-.56.23Z"/><path class="cls-1" d="M236.27,116.43a9.64,9.64,0,0,1-4.42-.92,6.38,6.38,0,0,1-2.74-2.6A9.14,9.14,0,0,1,228,109c0-.39,0-.88,0-1.45s0-1.05,0-1.45a8.69,8.69,0,0,1,1.11-3.93,6.56,6.56,0,0,1,2.76-2.58,10.71,10.71,0,0,1,8.73,0,6.62,6.62,0,0,1,2.76,2.58,8.56,8.56,0,0,1,1.1,3.93c0,.4,0,.88,0,1.45s0,1.06,0,1.45a8.87,8.87,0,0,1-1.07,3.92,6.3,6.3,0,0,1-2.73,2.6A9.65,9.65,0,0,1,236.27,116.43Zm0-3.26a3.34,3.34,0,0,0,2.7-1.1,5.23,5.23,0,0,0,1.06-3.24q0-.49,0-1.29c0-.52,0-1,0-1.28A5.19,5.19,0,0,0,239,103a3.84,3.84,0,0,0-5.4,0,5.25,5.25,0,0,0-1,3.24c0,.33,0,.76,0,1.28s0,1,0,1.29a5.29,5.29,0,0,0,1,3.24A3.37,3.37,0,0,0,236.27,113.17Z"/><path class="cls-1" d="M249,116.1a.75.75,0,0,1-.56-.23.77.77,0,0,1-.23-.56V99.81a.85.85,0,0,1,.23-.6A.79.79,0,0,1,249,99h2.67a.81.81,0,0,1,.57.23.79.79,0,0,1,.25.6v1.35a5,5,0,0,1,2-1.62,6.57,6.57,0,0,1,2.78-.56h1.35a.78.78,0,0,1,.58.23.81.81,0,0,1,.21.56v2.37a.79.79,0,0,1-.21.56.75.75,0,0,1-.58.23H256a3,3,0,0,0-3.32,3.33v9a.77.77,0,0,1-.23.56.78.78,0,0,1-.59.23Z"/><path class="cls-1" d="M270,116.1a.75.75,0,0,1-.56-.23.77.77,0,0,1-.23-.56V93.88a.81.81,0,0,1,.23-.59.75.75,0,0,1,.56-.23h8a12.87,12.87,0,0,1,5.49,1,7.11,7.11,0,0,1,3.26,3,10.34,10.34,0,0,1,1.13,4.9c.05,1,.07,1.82.07,2.57s0,1.59-.07,2.54a11.26,11.26,0,0,1-1.12,5,6.55,6.55,0,0,1-3.18,3,13,13,0,0,1-5.41,1Zm3.79-3.78H278a7.3,7.3,0,0,0,3-.53,3.39,3.39,0,0,0,1.7-1.7,7.64,7.64,0,0,0,.57-3.07c0-.66,0-1.24.05-1.73s0-1,0-1.48,0-1.06-.05-1.7a4.69,4.69,0,0,0-5.43-5.27h-4.08Z"/><path class="cls-1" d="M299.28,116.43a7.88,7.88,0,0,1-5.79-2.11,8.54,8.54,0,0,1-2.3-6,6.54,6.54,0,0,1,0-.84,5.61,5.61,0,0,1,0-.8,9.65,9.65,0,0,1,1.13-4.3,7,7,0,0,1,2.78-2.76,8.58,8.58,0,0,1,4.18-1,8.43,8.43,0,0,1,4.48,1.11,6.88,6.88,0,0,1,2.73,3.06,10.44,10.44,0,0,1,.93,4.53V108a.79.79,0,0,1-.23.56.85.85,0,0,1-.6.23H295.66v.26a5.61,5.61,0,0,0,.45,2.12,3.66,3.66,0,0,0,1.22,1.57,3.15,3.15,0,0,0,1.92.59,3.74,3.74,0,0,0,1.55-.28,4,4,0,0,0,1-.64,4.6,4.6,0,0,0,.56-.59,1.49,1.49,0,0,1,.48-.48,1.28,1.28,0,0,1,.54-.08h2.83a.76.76,0,0,1,.54.19.56.56,0,0,1,.19.5,2.86,2.86,0,0,1-.55,1.28,6.35,6.35,0,0,1-1.46,1.48,8,8,0,0,1-2.39,1.2A10.29,10.29,0,0,1,299.28,116.43Zm-3.62-10.37h7.28V106a5.47,5.47,0,0,0-.43-2.25,3.48,3.48,0,0,0-1.25-1.52,3.88,3.88,0,0,0-3.95,0,3.39,3.39,0,0,0-1.24,1.52,5.83,5.83,0,0,0-.41,2.25Z"/><path class="cls-1" d="M316.34,116.1a1.1,1.1,0,0,1-.78-.24,2.43,2.43,0,0,1-.41-.58L309,100a.68.68,0,0,1-.07-.29.69.69,0,0,1,.21-.51.74.74,0,0,1,.51-.22h2.67a.78.78,0,0,1,.59.22,1.16,1.16,0,0,1,.27.41l4.37,11.55,4.38-11.55a1.31,1.31,0,0,1,.27-.41.78.78,0,0,1,.59-.22h2.7a.71.71,0,0,1,.48.22.69.69,0,0,1,.21.51,1.59,1.59,0,0,1,0,.29L320,115.28a1.63,1.63,0,0,1-.4.58,1.13,1.13,0,0,1-.79.24Z"/><path class="cls-1" d="M335.93,116.43a7.89,7.89,0,0,1-5.8-2.11,8.54,8.54,0,0,1-2.3-6,6.54,6.54,0,0,1,0-.84,5.61,5.61,0,0,1,0-.8,9.65,9.65,0,0,1,1.13-4.3,7,7,0,0,1,2.78-2.76,8.59,8.59,0,0,1,4.19-1,8.4,8.4,0,0,1,4.47,1.11,6.88,6.88,0,0,1,2.73,3.06,10.44,10.44,0,0,1,.93,4.53V108a.79.79,0,0,1-.23.56.85.85,0,0,1-.6.23H332.3v.26a5.81,5.81,0,0,0,.45,2.12,3.66,3.66,0,0,0,1.22,1.57,3.17,3.17,0,0,0,1.92.59,3.74,3.74,0,0,0,1.55-.28,3.8,3.8,0,0,0,1-.64,4.6,4.6,0,0,0,.56-.59,1.49,1.49,0,0,1,.48-.48,1.28,1.28,0,0,1,.54-.08h2.83a.8.8,0,0,1,.55.19.58.58,0,0,1,.18.5,2.86,2.86,0,0,1-.55,1.28,6.35,6.35,0,0,1-1.46,1.48,7.86,7.86,0,0,1-2.39,1.2A10.27,10.27,0,0,1,335.93,116.43Zm-3.63-10.37h7.28V106a5.47,5.47,0,0,0-.43-2.25,3.41,3.41,0,0,0-1.25-1.52,3.88,3.88,0,0,0-3.95,0,3.31,3.31,0,0,0-1.23,1.52,5.64,5.64,0,0,0-.42,2.25Z"/><path class="cls-1" d="M348.37,116.1a.73.73,0,0,1-.56-.23.77.77,0,0,1-.23-.56V93.52a.79.79,0,0,1,.79-.79h2.73a.79.79,0,0,1,.79.79v21.79a.77.77,0,0,1-.23.56.73.73,0,0,1-.56.23Z"/><path class="cls-1" d="M363.84,116.43a9.71,9.71,0,0,1-4.43-.92,6.41,6.41,0,0,1-2.73-2.6,9.14,9.14,0,0,1-1.07-3.92c0-.39,0-.88,0-1.45s0-1.05,0-1.45a8.81,8.81,0,0,1,1.1-3.93,6.59,6.59,0,0,1,2.77-2.58,10.69,10.69,0,0,1,8.72,0,6.59,6.59,0,0,1,2.77,2.58,8.69,8.69,0,0,1,1.1,3.93c0,.4,0,.88,0,1.45s0,1.06,0,1.45a9,9,0,0,1-1.07,3.92,6.3,6.3,0,0,1-2.73,2.6A9.68,9.68,0,0,1,363.84,116.43Zm0-3.26a3.36,3.36,0,0,0,2.7-1.1,5.17,5.17,0,0,0,1-3.24c0-.33,0-.76,0-1.29s0-1,0-1.28a5.13,5.13,0,0,0-1-3.24,3.84,3.84,0,0,0-5.4,0,5.25,5.25,0,0,0-1.05,3.24c0,.33,0,.76,0,1.28s0,1,0,1.29a5.29,5.29,0,0,0,1.05,3.24A3.37,3.37,0,0,0,363.84,113.17Z"/><path class="cls-1" d="M376.58,122.36a.79.79,0,0,1-.79-.79V99.77a.79.79,0,0,1,.79-.79h2.6a.77.77,0,0,1,.58.23.81.81,0,0,1,.21.56v1.32a6.26,6.26,0,0,1,2.08-1.74,6.55,6.55,0,0,1,3.19-.7,7.62,7.62,0,0,1,3,.56,5.72,5.72,0,0,1,2.14,1.6,7.49,7.49,0,0,1,1.32,2.45,11.71,11.71,0,0,1,.52,3.13c0,.37,0,.76,0,1.15s0,.79,0,1.19a10.14,10.14,0,0,1-.49,3,7.28,7.28,0,0,1-1.33,2.44,6.27,6.27,0,0,1-2.16,1.63,7.28,7.28,0,0,1-3,.59,6.58,6.58,0,0,1-3-.64,5.85,5.85,0,0,1-2-1.7v7.48a.81.81,0,0,1-.21.56.78.78,0,0,1-.58.23Zm7.44-9.45a3.2,3.2,0,0,0,3.36-2.21,7.67,7.67,0,0,0,.43-2.17c0-.66,0-1.32,0-2a7.81,7.81,0,0,0-.43-2.18,3.45,3.45,0,0,0-1.15-1.59,3.52,3.52,0,0,0-2.21-.61,3.62,3.62,0,0,0-2.19.62,3.55,3.55,0,0,0-1.21,1.6,6.31,6.31,0,0,0-.45,2c0,.4,0,.81,0,1.25s0,.87,0,1.29a4.82,4.82,0,0,0,.46,1.89,3.94,3.94,0,0,0,1.25,1.5A3.61,3.61,0,0,0,384,112.91Z"/><path class="cls-1" d="M396.76,116.1a.75.75,0,0,1-.56-.23.77.77,0,0,1-.23-.56V99.77a.79.79,0,0,1,.79-.79h2.57a.77.77,0,0,1,.56.23.79.79,0,0,1,.23.56v1.12A5.77,5.77,0,0,1,402,99.33a6,6,0,0,1,2.78-.68,5.25,5.25,0,0,1,5.24,2.93,5.66,5.66,0,0,1,2.19-2.12,6.56,6.56,0,0,1,6.28,0,5.52,5.52,0,0,1,2.21,2.39,8.9,8.9,0,0,1,.81,4v9.45a.77.77,0,0,1-.23.56.75.75,0,0,1-.56.23H418a.79.79,0,0,1-.79-.79v-9.18a5.53,5.53,0,0,0-.43-2.36,2.61,2.61,0,0,0-1.15-1.23,3.6,3.6,0,0,0-1.62-.36,3.2,3.2,0,0,0-1.44.36,2.73,2.73,0,0,0-1.19,1.23,5.08,5.08,0,0,0-.46,2.36v9.18a.77.77,0,0,1-.23.56.73.73,0,0,1-.56.23h-2.7a.73.73,0,0,1-.56-.23.77.77,0,0,1-.23-.56v-9.18a5.08,5.08,0,0,0-.46-2.36,2.73,2.73,0,0,0-1.19-1.23,3.42,3.42,0,0,0-1.54-.36,3.11,3.11,0,0,0-1.49.38,2.87,2.87,0,0,0-1.18,1.23,4.94,4.94,0,0,0-.46,2.34v9.18a.77.77,0,0,1-.23.56.75.75,0,0,1-.56.23Z"/><path class="cls-1" d="M433,116.43a7.87,7.87,0,0,1-5.79-2.11,8.55,8.55,0,0,1-2.31-6q0-.33,0-.84c0-.34,0-.61,0-.8a9.79,9.79,0,0,1,1.14-4.3,7,7,0,0,1,2.78-2.76,8.58,8.58,0,0,1,4.18-1,8.43,8.43,0,0,1,4.48,1.11,6.88,6.88,0,0,1,2.73,3.06,10.44,10.44,0,0,1,.92,4.53V108a.75.75,0,0,1-.23.56.81.81,0,0,1-.59.23H429.42v.26a5.61,5.61,0,0,0,.45,2.12,3.72,3.72,0,0,0,1.21,1.57,3.2,3.2,0,0,0,1.93.59,3.77,3.77,0,0,0,1.55-.28,4.15,4.15,0,0,0,1-.64,4.6,4.6,0,0,0,.56-.59,1.39,1.39,0,0,1,.47-.48,1.33,1.33,0,0,1,.55-.08H440a.76.76,0,0,1,.54.19.58.58,0,0,1,.18.5,2.71,2.71,0,0,1-.54,1.28,6.21,6.21,0,0,1-1.47,1.48,7.8,7.8,0,0,1-2.38,1.2A10.34,10.34,0,0,1,433,116.43Zm-3.62-10.37h7.28V106a5.64,5.64,0,0,0-.43-2.25,3.48,3.48,0,0,0-1.25-1.52,3.88,3.88,0,0,0-3.95,0,3.39,3.39,0,0,0-1.24,1.52,5.83,5.83,0,0,0-.41,2.25Z"/><path class="cls-1" d="M445.45,116.1a.75.75,0,0,1-.56-.23.77.77,0,0,1-.23-.56V99.77a.79.79,0,0,1,.79-.79h2.7a.77.77,0,0,1,.56.23.75.75,0,0,1,.23.56v1.35a6.71,6.71,0,0,1,5.5-2.47,6.6,6.6,0,0,1,3.49.91,6,6,0,0,1,2.29,2.55,8.89,8.89,0,0,1,.81,4v9.25a.79.79,0,0,1-.79.79h-2.9a.79.79,0,0,1-.79-.79v-9a4.44,4.44,0,0,0-.94-3,3.41,3.41,0,0,0-2.72-1.08,3.58,3.58,0,0,0-2.73,1.08,4.23,4.23,0,0,0-1,3v9a.77.77,0,0,1-.23.56.73.73,0,0,1-.56.23Z"/><path class="cls-1" d="M472.74,116.1a7.25,7.25,0,0,1-3.32-.69,4.41,4.41,0,0,1-2-2.06,7.78,7.78,0,0,1-.66-3.4v-7.48h-2.6a.75.75,0,0,1-.56-.23.81.81,0,0,1-.23-.59V99.77a.79.79,0,0,1,.79-.79h2.6V93.52A.76.76,0,0,1,467,93a.75.75,0,0,1,.57-.23h2.67a.79.79,0,0,1,.79.79V99h4.12a.8.8,0,0,1,.79.79v1.88a.78.78,0,0,1-.24.59.73.73,0,0,1-.55.23H471v7.15a3.89,3.89,0,0,0,.48,2.1,1.8,1.8,0,0,0,1.66.76h2.27a.77.77,0,0,1,.56.23.79.79,0,0,1,.23.56v2a.77.77,0,0,1-.23.56.73.73,0,0,1-.56.23Z"/><path class="cls-2" d="M136.27,70.32a2,2,0,0,1-1.53-.64,2.13,2.13,0,0,1-.6-1.5V12.76a2.08,2.08,0,0,1,.6-1.54,2,2,0,0,1,1.53-.6h22.17a34.14,34.14,0,0,1,14.24,2.69,20,20,0,0,1,9,7.85,25.63,25.63,0,0,1,3.41,12.74c.06,2.51.09,4.69.09,6.57s0,4-.09,6.48a28.25,28.25,0,0,1-3.36,13.13A18.39,18.39,0,0,1,173,67.8a35.16,35.16,0,0,1-14.11,2.52ZM149.49,58h8.95a14.34,14.34,0,0,0,6.1-1.15,7.74,7.74,0,0,0,3.67-3.63,15.41,15.41,0,0,0,1.32-6.48c.11-1.65.18-3.13.21-4.43s0-2.62,0-3.93-.1-2.75-.21-4.35c-.12-3.86-1.12-6.69-3-8.48S161.77,22.9,158,22.9h-8.53Z"/><path class="cls-2" d="M222.4,70.32a2.19,2.19,0,0,1-2.13-2.14V58.55H193.75a2.13,2.13,0,0,1-1.5-.6,2,2,0,0,1-.64-1.53v-8.1a3.27,3.27,0,0,1,.3-1.41c.2-.43.41-.84.64-1.24l24.82-33.6a3.74,3.74,0,0,1,3.15-1.45H233a2.09,2.09,0,0,1,1.49.6,2,2,0,0,1,.64,1.54V45.84h7.51A2.1,2.1,0,0,1,244.82,48v8.45a2,2,0,0,1-.63,1.53,2.13,2.13,0,0,1-1.5.6H235.1v9.63A2.19,2.19,0,0,1,233,70.32ZM206.28,46.44h14.33V26.31Z"/><path class="cls-2" d="M255.57,70.32a2,2,0,0,1-1.54-.64,2.17,2.17,0,0,1-.59-1.5V12.76a2.11,2.11,0,0,1,.59-1.54,2.08,2.08,0,0,1,1.54-.6h22.17A34.14,34.14,0,0,1,292,13.31a20,20,0,0,1,9,7.85,25.73,25.73,0,0,1,3.41,12.74c.06,2.51.09,4.69.09,6.57s0,4-.09,6.48q-.35,7.94-3.37,13.13a18.33,18.33,0,0,1-8.78,7.72,35.16,35.16,0,0,1-14.11,2.52ZM268.79,58h8.95a14.37,14.37,0,0,0,6.1-1.15,7.68,7.68,0,0,0,3.66-3.63,15.25,15.25,0,0,0,1.33-6.48c.11-1.65.18-3.13.21-4.43s0-2.62,0-3.93-.1-2.75-.21-4.35q-.18-5.79-3-8.48c-1.91-1.79-4.73-2.69-8.49-2.69h-8.52Z"/><path class="cls-2" d="M314.67,70.32a2,2,0,0,1-1.54-.64,2.13,2.13,0,0,1-.6-1.5V57.35a2.05,2.05,0,0,1,2.14-2.13h10.82a2.13,2.13,0,0,1,1.5.6,2,2,0,0,1,.64,1.53V68.18a2.19,2.19,0,0,1-2.14,2.14Z"/><path class="cls-2" d="M339.31,70.32a2,2,0,0,1-1.54-.64,2.17,2.17,0,0,1-.59-1.5V28.11a2.11,2.11,0,0,1,.59-1.54,2.08,2.08,0,0,1,1.54-.6h9.81a2.2,2.2,0,0,1,1.57.6,2,2,0,0,1,.64,1.54v3.24a16.89,16.89,0,0,1,5.72-4.44,18.69,18.69,0,0,1,8.44-1.79,17,17,0,0,1,8.74,2.22,15.4,15.4,0,0,1,6,6.48,23.11,23.11,0,0,1,2.17,10.57V68.18a2.17,2.17,0,0,1-.59,1.5,2,2,0,0,1-1.54.64H369.5a2.19,2.19,0,0,1-2.14-2.14V44.9a9.09,9.09,0,0,0-1.91-6.18,7.17,7.17,0,0,0-5.68-2.17,7.37,7.37,0,0,0-5.58,2.17,8.58,8.58,0,0,0-2.09,6.18V68.18A2.19,2.19,0,0,1,350,70.32Z"/><path class="cls-2" d="M412.47,71.17q-10.07,0-16-5.46t-6.22-16.2v-3a24.81,24.81,0,0,1,3-11.56,18.33,18.33,0,0,1,7.68-7.33,24.77,24.77,0,0,1,11.47-2.52q7.5,0,12.41,3a19,19,0,0,1,7.37,8.1,26.48,26.48,0,0,1,2.48,11.68v2a2.05,2.05,0,0,1-2.14,2.13H405.23v.59a13.27,13.27,0,0,0,.89,4.52,7.29,7.29,0,0,0,2.39,3.24,6.21,6.21,0,0,0,3.88,1.2,6.6,6.6,0,0,0,2.86-.56,7.39,7.39,0,0,0,1.91-1.27,16.07,16.07,0,0,0,1.2-1.24,4.12,4.12,0,0,1,1.23-1.15,3.91,3.91,0,0,1,1.5-.22h10.57a2,2,0,0,1,1.41.52,1.55,1.55,0,0,1,.47,1.36,7.55,7.55,0,0,1-1.45,3.5,17.69,17.69,0,0,1-4,4,21.62,21.62,0,0,1-6.52,3.28A29.6,29.6,0,0,1,412.47,71.17Zm-7.24-27.54h14.41v-.17a12.82,12.82,0,0,0-.81-4.82,6.61,6.61,0,0,0-2.48-3.12,7,7,0,0,0-4-1.1,6.7,6.7,0,0,0-3.84,1.1,7,7,0,0,0-2.47,3.12,12.22,12.22,0,0,0-.85,4.82Z"/><path class="cls-2" d="M465.26,70.32a23.29,23.29,0,0,1-9.42-1.75,12.82,12.82,0,0,1-6.1-5.46,19.1,19.1,0,0,1-2.13-9.59V37.14H441a2.2,2.2,0,0,1-1.58-.59,2,2,0,0,1-.64-1.54v-6.9a2,2,0,0,1,.64-1.54A2.21,2.21,0,0,1,441,26h6.65V11.9a2,2,0,0,1,.64-1.53,2.09,2.09,0,0,1,1.49-.6h9.89a2.08,2.08,0,0,1,1.54.6,2.1,2.1,0,0,1,.59,1.53V26h10.66a2.22,2.22,0,0,1,1.58.6,2,2,0,0,1,.64,1.54V35a2,2,0,0,1-.64,1.54,2.21,2.21,0,0,1-1.58.59H461.76V52.32a8.36,8.36,0,0,0,1.11,4.61,4.12,4.12,0,0,0,3.75,1.7h6.57a2.06,2.06,0,0,1,1.53.6,2.08,2.08,0,0,1,.6,1.54v7.41a2.13,2.13,0,0,1-.6,1.5,2,2,0,0,1-1.53.64Z"/><path class="cls-3" d="M33.18,32.65a3.16,3.16,0,0,1,2.33-.9H69.27a66.21,66.21,0,0,1,8.16.48,37.28,37.28,0,0,0-5-16.2A30.58,30.58,0,0,0,58.68,4.09Q49.73,0,37,0H3.24A3.12,3.12,0,0,0,0,3.25V87.64a3.21,3.21,0,0,0,.91,2.27,3,3,0,0,0,2.33,1h29V35A3.16,3.16,0,0,1,33.18,32.65Z"/><path class="cls-1" d="M104.71,47.78A30.44,30.44,0,0,0,91,35.84a45.43,45.43,0,0,0-13.52-3.61c.1,1.05.17,2.11.21,3.21.09,3.81.13,7.15.13,10s0,6.15-.13,9.87q-.52,12.07-5.13,20A28,28,0,0,1,59.14,87.05q-8.76,3.84-21.49,3.83H32.27v28.5a3.2,3.2,0,0,0,.91,2.27,3,3,0,0,0,2.33,1H69.92q12.72,0,21.49-3.83a28,28,0,0,0,13.37-11.75q4.6-7.92,5.13-20c.08-3.72.13-7,.13-9.86s-.05-6.19-.13-10Q109.52,55.64,104.71,47.78Z"/><path class="cls-2" d="M59.14,87.05A28,28,0,0,0,72.51,75.3q4.6-7.92,5.13-20,.14-5.58.13-9.87c0-2.85,0-6.19-.13-10,0-1.1-.11-2.16-.21-3.21a66.21,66.21,0,0,0-8.16-.48H35.51A3.1,3.1,0,0,0,32.27,35V90.88h5.38Q50.37,90.88,59.14,87.05Z"/></g></svg>