<svg width="425" height="257" viewBox="0 0 425 257" fill="none" xmlns="http://www.w3.org/2000/svg">
<rect width="425" height="257" fill="white"/>
<rect width="425" height="257" fill="#023047"/>
<path d="M201.011 108.72C201.169 108.564 201.356 108.442 201.563 108.361C201.769 108.28 201.99 108.242 202.211 108.25H219.481C220.878 108.249 222.274 108.332 223.661 108.5C223.456 105.578 222.583 102.742 221.111 100.21C219.446 97.5146 217.006 95.385 214.111 94.0997C210.602 92.62 206.818 91.9074 203.011 92.0096H185.661C185.441 92.0027 185.221 92.0398 185.015 92.1188C184.809 92.1978 184.621 92.3171 184.461 92.4697C184.308 92.6284 184.188 92.8166 184.109 93.0228C184.03 93.229 183.993 93.449 184.001 93.6697V136.85C183.996 137.282 184.161 137.699 184.461 138.01C184.613 138.175 184.798 138.306 185.006 138.393C185.213 138.479 185.437 138.519 185.661 138.51H200.511V109.91C200.508 109.688 200.551 109.467 200.637 109.262C200.723 109.058 200.85 108.873 201.011 108.72V108.72Z" fill="#FFB703"/>
<path d="M237.661 116.46C236.002 113.76 233.56 111.629 230.661 110.35C228.464 109.378 226.13 108.754 223.741 108.5C223.741 109.04 223.831 109.58 223.841 110.15C223.891 112.15 223.911 113.8 223.911 115.26C223.911 116.72 223.911 118.41 223.841 120.31C223.811 123.882 222.912 127.393 221.221 130.54C219.657 133.233 217.255 135.34 214.381 136.54C210.891 137.955 207.146 138.636 203.381 138.54H200.631V153.12C200.625 153.555 200.79 153.975 201.091 154.29C201.245 154.452 201.431 154.58 201.638 154.664C201.845 154.749 202.068 154.788 202.291 154.78H219.891C223.656 154.876 227.401 154.195 230.891 152.78C233.765 151.58 236.167 149.472 237.731 146.78C239.422 143.633 240.321 140.122 240.351 136.55C240.401 134.65 240.421 132.96 240.421 131.5C240.421 130.04 240.421 128.34 240.351 126.39C240.336 122.902 239.408 119.479 237.661 116.46V116.46Z" fill="#219EBC"/>
<path d="M214.301 136.55C217.175 135.35 219.577 133.242 221.141 130.55C222.832 127.403 223.732 123.892 223.761 120.32C223.811 118.42 223.831 116.73 223.831 115.27C223.831 113.81 223.831 112.11 223.761 110.16C223.761 109.59 223.761 109.05 223.661 108.51C222.274 108.342 220.878 108.259 219.481 108.26H202.211C201.991 108.25 201.771 108.286 201.565 108.366C201.359 108.446 201.172 108.568 201.016 108.724C200.859 108.88 200.737 109.067 200.657 109.273C200.578 109.479 200.541 109.699 200.551 109.92V138.52H203.301C207.064 138.626 210.809 137.955 214.301 136.55V136.55Z" fill="#023047"/>
</svg>
