<svg id="Layer_1" data-name="Layer 1" xmlns="http://www.w3.org/2000/svg" viewBox="0 0 267 120"><defs><style>.cls-1{fill:#7373ea;}</style></defs><title>IL_LOGO</title><polygon class="cls-1" points="84.93 32.42 72.8 32.42 72.8 87.57 111.45 87.57 111.45 76.54 84.93 76.54 84.93 32.42"/><rect class="cls-1" x="51.64" y="32.42" width="12.13" height="55.15"/><rect class="cls-1" x="93.77" y="53.39" width="13.26" height="8.57"/><path class="cls-1" d="M166.69,59.84c0-14.26-10.11-25.46-25.19-27.19V43.8C149.11,45.43,154,51.65,154,60v.16c0,9.77-6.69,16.47-16.62,16.47H128V32.42H115.87V87.57h21.51c17.33,0,29.31-12.06,29.31-27.58Z"/><path class="cls-1" d="M199.47,32H188.29L164.65,87.57H177l5-12.37h23.32l5.05,12.37h12.68ZM186.4,64.48l7.32-17.88,7.33,17.88Z"/></svg>